<svg width="505" height="368" viewBox="0 0 505 368" fill="none" xmlns="http://www.w3.org/2000/svg">
<g clip-path="url(#clip0_606_6248)">
<path d="M388.314 172.291C388.229 215.454 372.027 257.024 342.892 288.828C313.757 320.633 273.798 340.372 230.869 344.164C187.941 347.956 145.149 335.527 110.906 309.32C76.6628 283.114 53.4463 245.026 45.8202 202.544C38.1942 160.062 46.7104 116.259 69.6946 79.7474C92.6788 43.2356 128.468 16.6558 170.027 5.23342C211.586 -6.18898 255.908 -1.62763 294.279 18.0207C332.65 37.669 362.295 70.9829 377.386 111.413C377.762 112.428 378.129 113.444 378.486 114.469V114.478C380.079 118.984 381.482 123.574 382.695 128.247C386.438 142.628 388.326 157.43 388.314 172.291V172.291Z" fill="#268AFF" fill-opacity="0.5"/>
<path d="M195.529 54.8641C187.719 50.6344 179.049 48.2468 170.178 47.8833C161.308 47.5198 152.472 49.1901 144.343 52.7667C137.187 55.8862 129.651 61.4822 127.264 71.5875C136.919 65.88 149.419 74.8978 151.903 89.3641L151.323 89.5243C150.011 99.5443 152.941 110.453 158.612 116.667C159.034 113.863 160.074 111.189 161.656 108.838C163.239 106.488 165.324 104.519 167.761 103.077C171.928 100.333 176.538 98.34 179.719 93.6239C183.49 88.0328 184.447 79.8616 185.945 72.4074C187.443 64.9531 190.285 56.9412 195.529 54.8641Z" fill="#42C2D6" fill-opacity="0.7"/>
<path d="M141.48 140.13C138.806 144.153 135.234 146.677 132.029 149.819C128.328 153.19 125.901 157.735 125.155 162.689C124.749 166.189 125.377 169.747 125.29 173.286C125.203 176.825 124.025 180.809 121.621 181.689C117.827 183.062 114.931 176.003 111.031 175.51C107.932 175.123 105.142 180.006 106.04 184.241C106.938 188.477 111.156 190.352 113.58 187.587C115.771 191.271 114.226 197.952 110.934 199.084C110.587 201.404 110.239 203.715 109.901 206.036C101.58 200.205 93.171 194.278 86.0946 185.74C78.2245 176.325 73.343 164.769 72.0769 152.555C71.1598 142.741 72.521 131.515 68.0224 123.964C64.4213 117.92 58.2427 116.586 52.682 116.963C51.6683 117.031 50.6451 117.147 49.6313 117.272C52.9107 107.407 57.0757 97.8604 62.0752 88.7482C63.2066 88.2617 64.258 87.6064 65.1934 86.8045C70.3681 82.4051 72.6658 73.4997 76.8652 67.3404C77.1355 66.9439 77.4155 66.5571 77.7051 66.1801C82.0012 60.5622 87.7549 57.6711 93.3156 54.983C105.625 48.9978 118.29 42.9353 131.285 43.7668L127.587 44.1245C123.272 56.2304 118.953 68.3363 114.632 80.4422C113.975 82.2986 113.312 84.1583 112.643 86.0214C110.191 92.9058 107.661 100.235 108.038 107.942C108.26 112.505 109.843 117.379 112.855 118.945C115.665 120.396 118.735 118.616 121.447 116.857C122.596 116.122 123.735 115.387 124.884 114.642C129.006 111.983 133.573 109.256 137.927 111.036C141.914 112.66 144.858 118.085 145.418 123.934C145.932 129.621 144.547 135.317 141.48 140.13Z" fill="#42C2D6" fill-opacity="0.7"/>
<path d="M165.997 222.78C153.958 215.356 141.918 207.931 129.879 200.507L130.083 199.979C122.597 202.835 119.489 216.162 120.726 227.061C121.964 237.959 126.158 247.702 128.277 258.322C131.135 272.854 130.056 287.887 125.154 301.861C140.985 284.07 154.996 264.733 166.975 244.142C168.649 241.547 169.924 238.715 170.758 235.741C171.642 232.571 171.327 229.186 169.874 226.235C168.888 224.778 167.556 223.591 165.997 222.78Z" fill="#42C2D6" fill-opacity="0.7"/>
<path d="M118.481 87.7059C117.067 90.7462 116.849 94.2085 117.871 97.4025C119.059 99.9759 121.214 101.975 123.866 102.964L130.519 106.267C132.732 107.366 135.117 108.475 137.373 107.571C140.094 106.481 141.981 102.208 141.493 98.2416C140.974 94.0205 138.317 91.1171 135.86 88.6445C132.422 85.1844 128.984 81.7243 125.546 78.2642L123.608 80.6412C121.512 82.6887 119.779 85.0775 118.481 87.7059V87.7059Z" fill="#42C2D6" fill-opacity="0.7"/>
<path d="M352.651 132.83C355.643 133.536 358.636 134.242 361.629 134.948C361.108 145.072 356.097 154.441 349.378 157.835C346.578 159.247 343.46 159.769 341.143 162.409C339.048 164.806 337.986 168.539 337.011 172.107C335.302 178.334 333.594 184.561 331.885 190.787C330.051 197.498 327.695 204.953 322.926 207.37C318.833 209.449 314.15 206.906 311.003 202.642C307.856 198.378 305.935 192.644 304.072 187.055C304.188 193.147 301.359 199.123 297.353 201.24C293.336 203.357 288.451 201.443 285.768 196.715C283.837 193.321 283.036 188.844 281.143 185.402C279.251 181.96 275.284 179.987 273.218 183.217C271.856 185.363 272.03 188.651 271.354 191.377C271.014 193.188 270.119 194.847 268.794 196.124C267.468 197.401 265.779 198.233 263.959 198.504C262.286 198.465 260.639 198.086 259.117 197.39C257.595 196.693 256.231 195.694 255.107 194.452C249.195 188.395 245.346 180.621 244.111 172.242C243.273 168.224 243.379 164.067 244.42 160.097C245.607 156.336 248.474 153.436 251.322 154.151C253.195 150.186 249.498 144.926 246.167 145.391C242.827 145.855 240.21 149.442 237.469 152.198C234.737 154.953 230.914 156.955 228.162 154.218C228.224 155.219 227.886 156.204 227.223 156.955C226.56 157.706 225.626 158.163 224.626 158.225C224.527 158.231 224.429 158.233 224.33 158.231C222.5 157.705 220.8 156.803 219.338 155.582C213.034 151.646 205.031 154.257 200.552 161.702C203.351 149.771 207.454 136.079 216.056 133.275C219.57 132.124 223.403 133.072 226.724 131.08C232.603 127.551 233.791 114.217 228.713 108.715C229.359 113.917 229.234 119.989 226.492 123.548C223.75 127.106 217.997 124.785 218.344 119.525C218.266 120.265 217.956 120.961 217.459 121.514C216.962 122.067 216.303 122.448 215.576 122.602C214.85 122.757 214.093 122.677 213.414 122.374C212.736 122.072 212.17 121.562 211.799 120.918C209.974 118.133 210.129 113.579 211.422 110.253C212.756 107.24 214.668 104.52 217.051 102.247C221.636 97.325 226.289 92.3453 231.599 89.2511C236.919 86.157 243.059 85.1128 248.388 88.1876C251.197 89.8119 253.668 92.5194 256.536 93.9504C257.209 94.3691 257.959 94.6509 258.741 94.7795C259.524 94.9081 260.324 94.8811 261.096 94.7C261.868 94.5189 262.597 94.1872 263.241 93.724C263.885 93.2608 264.432 92.675 264.85 92.0002C264.882 91.9481 264.914 91.8955 264.944 91.8424C267.078 88.0907 266.074 82.5213 266.865 77.8318C268.284 69.5453 276.558 65.6679 281.144 71.1407C277.716 70.2608 274.173 74.3219 273.749 79.2436C273.314 84.1652 275.795 89.1352 279.116 90.6242C284.696 93.0995 290.16 86.8725 294.379 81.1097C298.781 75.076 303.19 69.0457 307.605 63.0186C308.31 61.9924 309.101 61.0284 309.97 60.1372C311.353 58.7872 313.197 58.0142 315.127 57.9747C317.058 57.9352 318.931 58.6322 320.368 59.9245C324.828 63.5697 326.923 71.0441 330.582 76.1881C335.892 83.6624 343.837 85.4802 351.232 86.9306C356.744 88.0039 362.26 89.0836 367.779 90.1698C371.458 97.0247 374.667 104.122 377.384 111.413C367.264 116.035 358.68 123.468 352.651 132.83Z" fill="#42C2D6" fill-opacity="0.7"/>
<path d="M382.694 128.247C381.563 131.586 380.945 135.078 380.86 138.603C376.13 132.821 375.376 121.981 378.485 114.478C380.078 118.984 381.481 123.574 382.694 128.247Z" fill="#42C2D6" fill-opacity="0.7"/>
<path d="M370.472 249.17C366.336 257.582 361.525 265.643 356.087 273.276C352.612 271.787 348.876 274.446 345.622 276.94C342.224 279.551 338.14 282.094 334.655 279.715C331.093 277.279 329.944 270.462 331.074 265.057C332.372 260.071 334.642 255.391 337.754 251.288C340.65 246.956 343.749 242.46 347.775 240.777C351.811 239.095 356.995 241.473 358.173 247.217L361.03 247.12C359.428 244.916 360.268 240.352 362.42 239.549C364.901 238.611 367.054 242.025 368.522 245.041C369.178 246.405 369.844 247.778 370.472 249.17Z" fill="#42C2D6" fill-opacity="0.7"/>
<path d="M261.03 208.329C254.888 208.715 250.022 201.142 246.789 193.692C243.556 186.241 240.607 177.721 235.064 173.929C231.898 171.762 228.287 171.465 224.853 170.415C222.904 169.922 221.102 168.971 219.593 167.641C218.085 166.311 216.915 164.64 216.18 162.767L212.284 161.191C206.834 163.92 201.843 167.484 197.491 171.755C192.518 177.046 189.421 183.828 188.676 191.056C187.932 198.868 190.681 207.577 195.816 210.512C199.874 212.83 204.598 211.369 208.708 213.491C213.844 216.143 216.893 223.847 218.047 231.453C219.201 239.059 218.908 246.964 219.734 254.657C220.56 262.349 222.836 270.354 227.545 274.296C233.438 279.229 242.086 275.13 244.73 266.15C246.027 261.745 245.983 256.774 246.953 252.202C248.661 244.15 253.271 238.176 256.927 231.57C260.583 224.965 263.462 215.994 261.03 208.329Z" fill="#42C2D6" fill-opacity="0.7"/>
<path d="M200.335 129.203C200.907 129.731 201.442 130.3 201.934 130.904C202.443 131.784 202.704 132.786 202.686 133.803C202.669 134.819 202.375 135.812 201.836 136.674C202.576 136.632 203.299 136.436 203.959 136.1C204.62 135.764 205.204 135.294 205.674 134.72C206.795 133.441 207.781 132.05 208.617 130.568C209.01 130.061 209.29 129.475 209.44 128.851C209.589 128.226 209.605 127.577 209.484 126.947C209.194 126.117 208.508 125.763 208.027 125.14C207.36 123.92 206.905 122.596 206.681 121.224C206.414 119.938 205.795 118.751 204.892 117.798C203.989 116.846 202.839 116.164 201.571 115.83L201.879 115.889C201.355 116.2 200.941 116.668 200.696 117.226C200.451 117.785 200.386 118.406 200.511 119.004C200.697 120.21 201.471 121.212 201.394 122.443C201.284 124.212 199.518 125.043 199.409 126.812C199.392 127.7 199.724 128.559 200.335 129.203V129.203Z" fill="#42C2D6" fill-opacity="0.7"/>
<path d="M191.653 107.438C192.391 106.79 192.936 105.951 193.23 105.013C193.524 104.075 193.556 103.075 193.32 102.12C192.874 100.108 191.295 98.7553 189.838 99.1269C189.416 99.556 188.891 99.8704 188.314 100.041C187.737 100.211 187.126 100.231 186.538 100.1C185.638 99.8677 184.649 99.2697 183.868 99.9494C183.421 100.457 183.108 101.068 182.958 101.728C182.669 102.617 182.38 103.506 182.091 104.395C181.954 104.713 181.918 105.066 181.988 105.405C182.044 105.541 182.133 105.661 182.248 105.752C182.363 105.843 182.499 105.904 182.644 105.927C184.378 106.439 186.113 106.951 187.848 107.463C188.445 107.739 189.095 107.88 189.753 107.875C190.411 107.871 191.059 107.722 191.653 107.438V107.438Z" fill="#42C2D6" fill-opacity="0.7"/>
<path d="M322.602 222.115C321.8 220.8 320.998 219.485 320.197 218.17C319.409 216.648 318.332 215.294 317.027 214.184C316.744 213.947 316.417 213.768 316.066 213.657C315.714 213.546 315.344 213.506 314.976 213.538C314.609 213.571 314.251 213.675 313.924 213.846C313.597 214.017 313.307 214.251 313.07 214.534L313.028 214.585L313.126 215.336C315.273 217.641 316.736 220.501 317.351 223.592C317.534 224.936 317.47 226.327 317.63 227.676C317.647 228.302 317.787 228.918 318.042 229.49C318.297 230.061 318.662 230.577 319.116 231.007C320.378 231.852 321.861 230.606 322.759 229.087C323.563 227.838 323.923 226.355 323.783 224.877C323.582 223.885 323.18 222.945 322.602 222.115V222.115Z" fill="#42C2D6" fill-opacity="0.7"/>
<path d="M335.18 223.826C335.333 222.595 335.233 221.346 334.886 220.155C334.829 218.544 335.256 216.952 336.111 215.586C336.96 214.298 337.604 212.884 338.018 211.397C338.193 210.72 338.161 210.005 337.927 209.346C337.662 208.749 337.019 208.476 336.65 208.949L337.439 209.458C336.374 209.268 335.279 209.321 334.237 209.614C333.642 209.842 333.111 210.21 332.689 210.687C332.266 211.164 331.965 211.735 331.81 212.354C331.679 213.318 331.466 214.269 331.173 215.197C330.702 216.166 329.791 216.488 329.219 217.339C328.828 218.093 328.631 218.932 328.645 219.782C328.659 220.631 328.884 221.463 329.299 222.204C330.018 223.415 331.161 224.316 332.506 224.73C333.47 225.076 334.739 225.095 335.18 223.826Z" fill="#42C2D6" fill-opacity="0.7"/>
<path d="M357.58 230.594C357.929 231.502 358.395 232.36 358.968 233.146C360.041 234.228 361.498 233.563 362.799 233.3C363.979 233.113 365.188 233.25 366.298 233.696C367.407 234.141 368.375 234.879 369.1 235.831C368.595 233.311 367.494 230.949 365.889 228.943C364.284 226.938 362.222 225.347 359.876 224.305C356.827 223.249 353.615 222.745 350.39 222.82L349.839 222.961C351.243 227.054 355.651 226.962 357.58 230.594Z" fill="#42C2D6" fill-opacity="0.7"/>
<path d="M259.311 245.553C258.57 246.9 257.932 248.303 257.404 249.747C256.705 252.087 256.242 254.492 256.023 256.924C255.85 258.307 255.797 260.074 256.662 260.748C256.911 260.913 257.21 260.982 257.506 260.942C257.801 260.902 258.072 260.755 258.268 260.53C258.748 260.02 259.142 259.435 259.432 258.797C261.132 255.864 262.452 252.725 263.36 249.457C264.308 245.99 264.082 242.307 262.717 238.983C261.582 241.173 260.446 243.363 259.311 245.553Z" fill="#42C2D6" fill-opacity="0.7"/>
<path d="M226.529 70.0413C227.068 70.5697 227.751 70.9284 228.492 71.0733C229.232 71.2181 229.999 71.1427 230.698 70.8563C232.144 70.2229 233.471 69.345 234.621 68.261C235.573 67.5556 236.38 66.6735 236.999 65.6626C237.34 65.0585 237.559 64.3929 237.642 63.704C237.726 63.0151 237.672 62.3165 237.486 61.6482C237.22 61.008 236.795 60.4462 236.252 60.016C235.709 59.5858 235.066 59.3014 234.382 59.1897C232.457 58.6178 230.532 58.046 228.606 57.4742L229.999 56.217C228.566 55.4467 226.981 56.8762 226.085 58.6461C225.511 59.8017 225.111 61.0361 224.897 62.3092C224.593 63.6394 224.581 65.02 224.862 66.3552C225.144 67.6905 225.713 68.9483 226.529 70.0413V70.0413Z" fill="#42C2D6" fill-opacity="0.7"/>
<path d="M260.521 58.612C261.064 59.2111 261.814 59.5811 262.619 59.6467C263.424 59.7123 264.224 59.4686 264.856 58.9652C265.4 58.5559 265.852 58.0363 266.183 57.4404C266.513 56.8444 266.714 56.1854 266.774 55.5064C266.91 53.9895 266.161 52.3037 265.092 52.1727L265.336 50.7525C263.276 50.3798 260.741 50.3052 259.637 52.811C259.265 53.7709 259.15 54.8118 259.306 55.8298C259.461 56.8478 259.88 57.8072 260.521 58.612V58.612Z" fill="#42C2D6" fill-opacity="0.7"/>
<path d="M68.0073 367.071C105.567 367.071 136.015 362.192 136.015 356.174C136.015 350.156 105.567 345.277 68.0073 345.277C30.4479 345.277 0 350.156 0 356.174C0 362.192 30.4479 367.071 68.0073 367.071Z" fill="#BADAFF"/>
<path d="M399.772 355.993C457.888 355.993 505 348.445 505 339.133C505 329.821 457.888 322.272 399.772 322.272C341.657 322.272 294.545 329.821 294.545 339.133C294.545 348.445 341.657 355.993 399.772 355.993Z" fill="#BADAFF"/>
<path d="M376.393 177.067C376.393 177.067 377.289 180.058 372.212 182.749C367.135 185.441 365.642 195.609 371.615 198.599C377.587 201.59 379.379 205.478 376.393 208.169C373.407 210.861 368.031 218.038 375.198 219.832C382.365 221.627 383.261 225.215 381.171 226.711C379.08 228.206 385.949 224.019 385.949 224.019C385.949 224.019 387.143 231.196 393.414 229.402C399.685 227.608 417.304 193.515 408.346 188.731C399.387 183.946 376.393 177.067 376.393 177.067Z" fill="black"/>
<path d="M387.217 205.944C387.217 205.944 390.314 216.801 384.893 217.577C381.529 218.102 378.342 219.432 375.601 221.454L385.668 234.638H404.254L415.87 223.006C415.87 223.006 400.382 211.373 403.479 204.393C406.577 197.413 387.217 205.944 387.217 205.944Z" fill="#FFB8B8"/>
<path opacity="0.1" d="M387.217 205.944C387.217 205.944 390.314 216.801 384.893 217.577C381.529 218.102 378.342 219.432 375.601 221.454L385.668 234.638H404.254L415.87 223.006C415.87 223.006 400.382 211.373 403.479 204.393C406.577 197.413 387.217 205.944 387.217 205.944Z" fill="black"/>
<path d="M391.863 340.886L409.674 347.09L422.064 347.866L421.29 337.008L395.735 329.439L391.863 340.886Z" fill="#FFB8B8"/>
<path d="M414.708 338.559C414.708 338.559 414.708 349.417 416.257 349.417C417.806 349.417 438.715 347.09 444.91 349.417C451.105 351.743 460.398 343.212 455.752 338.559C451.105 333.906 443.526 326.926 438.797 328.477C434.068 330.028 414.708 333.906 414.708 333.906V338.559Z" fill="#0076FF"/>
<path d="M357.789 328.478C357.789 328.478 348.496 347.09 354.691 348.641C360.886 350.192 367.856 347.866 368.631 347.09C369.405 346.315 380.247 343.212 381.795 344.763C383.344 346.315 383.344 338.559 383.344 338.559L357.789 328.478Z" fill="#0076FF"/>
<path d="M365.533 302.885C365.533 302.885 350.82 323.049 361.661 328.477C372.503 333.906 424.388 333.906 428.26 328.477C432.132 323.049 433.681 305.987 428.26 304.436C422.839 302.885 365.533 302.885 365.533 302.885Z" fill="#268AFF"/>
<path d="M393.412 211.373C403.249 211.373 411.223 203.387 411.223 193.536C411.223 183.685 403.249 175.699 393.412 175.699C383.575 175.699 375.601 183.685 375.601 193.536C375.601 203.387 383.575 211.373 393.412 211.373Z" fill="#FFB8B8"/>
<path d="M365.533 221.455L381.021 218.353C381.021 218.353 384.893 230.761 397.284 228.434C409.675 226.108 412.772 218.353 412.772 218.353C412.772 218.353 422.065 222.23 422.839 222.23C423.614 222.23 433.681 226.108 433.681 228.434C433.681 230.761 422.065 254.027 422.065 254.027L423.614 295.905L366.308 294.354L370.18 253.251L365.533 221.455Z" fill="#93C5FF"/>
<path d="M357.014 241.618C357.014 241.618 352.368 282.721 355.466 285.823C358.563 288.925 370.954 297.456 370.954 297.456V288.15L364.759 276.517L370.954 249.373L357.014 241.618Z" fill="#FFB8B8"/>
<path d="M437.166 240.455C437.166 240.455 434.455 282.721 434.455 284.272C434.455 285.823 427.486 291.252 425.163 291.252C422.839 291.252 421.291 287.374 421.291 287.374L426.711 281.17L422.839 249.374L437.166 240.455Z" fill="#FFB8B8"/>
<path d="M429.809 299.783C429.809 299.783 464.657 280.395 465.432 299.783C466.206 319.171 447.62 326.926 447.62 326.926C447.62 326.926 399.607 341.345 397.671 336.074C395.735 330.804 391.863 322.273 394.96 321.498C398.058 320.722 401.93 319.171 403.479 320.722C405.028 322.273 424.388 309.089 424.388 309.089L429.809 299.783Z" fill="#268AFF"/>
<path opacity="0.2" d="M446.072 297.456C446.072 297.456 439.102 300.558 436.779 302.885C434.455 305.211 424.388 309.089 424.388 309.089" stroke="black" stroke-width="2" stroke-miterlimit="10"/>
<path d="M370.18 223.006L365.533 221.455C365.533 221.455 348.496 239.292 353.917 243.945C359.338 248.598 362.436 250.149 363.984 251.7C365.533 253.251 373.277 254.027 373.277 254.027L370.18 223.006Z" fill="#93C5FF"/>
<path d="M426.711 226.883L433.681 228.434C433.681 228.434 439.102 240.067 440.651 241.618C442.2 243.169 438.328 242.394 436.004 245.496C433.681 248.598 431.358 254.027 426.711 254.027C422.065 254.027 415.87 246.271 415.87 246.271L426.711 226.883Z" fill="#93C5FF"/>
<path d="M367.082 306.763C367.082 306.763 337.654 285.823 327.587 301.334C317.52 316.844 370.954 337.784 378.698 340.886C386.442 343.988 393.412 347.09 393.412 347.09C393.412 347.09 400.381 330.028 400.381 326.926C400.381 323.824 394.96 323.824 393.412 323.824C391.863 323.824 384.893 322.273 383.344 319.946C381.796 317.62 367.082 306.763 367.082 306.763Z" fill="#268AFF"/>
<path opacity="0.2" d="M350.819 301.334C350.819 301.334 358.563 307.538 365.533 309.089C372.503 310.64 374.826 314.518 374.826 314.518" stroke="black" stroke-width="2" stroke-miterlimit="10"/>
<path d="M361.74 272.174L362.359 305.011C362.379 306.095 362.827 307.128 363.604 307.883C364.382 308.639 365.426 309.056 366.509 309.043L427.527 308.357C428.566 308.345 429.563 307.939 430.315 307.22C431.067 306.501 431.519 305.523 431.579 304.483L433.431 272.334C433.463 271.775 433.381 271.215 433.189 270.689C432.998 270.164 432.701 269.682 432.318 269.275C431.934 268.868 431.471 268.544 430.958 268.322C430.445 268.101 429.892 267.986 429.333 267.986H365.844C365.298 267.986 364.758 268.095 364.255 268.307C363.752 268.518 363.296 268.828 362.914 269.218C362.532 269.608 362.231 270.07 362.03 270.578C361.828 271.085 361.73 271.628 361.74 272.174V272.174Z" fill="#60A9FF"/>
<path d="M394.363 171.129C394.363 171.129 395.356 174.442 389.732 177.423C384.108 180.405 382.454 191.669 389.07 194.982C395.687 198.295 397.672 202.602 394.363 205.583C391.055 208.565 385.101 216.516 393.04 218.504C400.98 220.492 401.972 224.467 399.657 226.124C397.341 227.78 404.95 223.142 404.95 223.142C404.95 223.142 406.273 231.093 413.22 229.105C420.167 227.117 427.099 190.985 419.355 181.678C412.154 173.025 394.363 171.129 394.363 171.129Z" fill="black"/>
<path d="M392.25 167.719C392.252 162.865 406.751 166.353 412.968 173.129C417.273 177.822 423.812 184.882 418.333 189.859C412.853 194.836 427.725 201.36 431.713 203.338C435.702 205.316 443.576 211.365 436.466 215.422C429.356 219.48 429.47 223.577 432.146 224.546C434.822 225.516 426.246 223.104 426.246 223.104C426.246 223.104 427.113 231.118 419.888 231.08C412.663 231.042 391.935 191.278 396.887 180.225C401.491 169.948 392.25 167.719 392.25 167.719Z" fill="black"/>
<path d="M395.391 166.655C376.001 165.486 374.055 180.103 374.055 180.103C374.189 188.561 387.602 184.44 391.328 185.701C395.822 182.463 404.486 176.336 410.682 171.964C406.184 168.792 400.885 166.952 395.391 166.655Z" fill="black"/>
<path d="M390 260L391.633 254.462L386.021 255.817L390 260ZM295 139L297.681 144.113L300.769 139.235L295 139ZM389.427 255.495C385.116 239.623 365.844 184.056 299.072 140.986L298.53 141.826C365.029 184.72 384.192 240.036 388.462 255.757L389.427 255.495Z" fill="white"/>
<path d="M31.4642 343.34C31.4642 353.679 25.3268 357.289 17.7553 357.289C17.5799 357.289 17.4048 357.287 17.2299 357.283C16.8791 357.276 16.5317 357.259 16.1884 357.236C9.35523 356.751 4.04639 352.956 4.04639 343.34C4.04639 333.388 16.7447 320.832 17.6985 319.902L17.7002 319.901C17.7369 319.865 17.7553 319.847 17.7553 319.847C17.7553 319.847 31.4642 333 31.4642 343.34Z" fill="#42C2D6"/>
<path d="M17.2557 355.708L22.2697 348.692L17.2432 356.478L17.2299 357.284C16.879 357.276 16.5316 357.259 16.1883 357.236L16.7287 346.891L16.7245 346.811L16.7337 346.796L16.7847 345.819L11.7456 338.013L16.8005 345.086L16.8122 345.294L17.2207 337.478L12.9066 329.412L17.2733 336.106L17.6984 319.902L17.7001 319.847V319.901L17.6291 332.678L21.924 327.613L17.6116 333.779L17.498 340.777L21.508 334.061L17.4813 341.807L17.4178 345.697L23.2395 336.35L17.3961 347.055L17.2557 355.708Z" fill="#FFB8B8"/>
<path d="M96.852 340.661L99.7845 338.479C99.7845 338.479 101.726 349.338 99.5596 350.965C97.3935 352.592 89.2708 355.303 89.2708 358.557C89.2708 361.811 70.8594 366.149 70.3179 361.268C69.7764 356.388 71.9424 353.676 71.9424 353.676C71.9424 353.676 80.6066 345 81.6896 343.373C82.7727 341.746 85.4802 338.492 85.4802 338.492L96.852 340.661Z" fill="#0076FF"/>
<path d="M53.5312 205.63C53.5312 205.63 53.6125 206.107 53.7532 206.98C53.8833 207.756 54.0619 208.851 54.2785 210.201C56.5529 224.1 63.1865 265.017 62.737 266.367C62.1955 267.994 58.4049 273.959 62.737 275.586C63.1539 275.743 63.6034 276.253 64.0853 277.056C65.0155 278.784 65.7824 280.596 66.3759 282.468C68.9589 289.973 71.7207 301.985 73.3182 310.304C74.0167 313.959 74.4932 316.898 74.634 318.438C74.6829 318.794 74.6884 319.155 74.6503 319.512C74.1087 321.681 77.8993 329.273 79.5239 331.442C81.1484 333.612 83.856 335.781 83.3145 337.95C82.7729 340.119 96.8523 346.084 98.4768 342.288C100.101 338.492 100.101 336.323 100.643 335.238C101.184 334.154 101.726 326.562 99.0183 325.477C96.3108 324.393 97.9353 305.412 95.2277 301.616C94.3235 300.353 92.9426 296.074 91.4967 290.927C90.9282 288.91 90.3541 286.763 89.7909 284.61C87.5058 275.787 85.4805 266.909 85.4805 266.909L86.022 203.461L56.2388 199.665L55.4753 201.351L53.9536 204.697L53.5312 205.63Z" fill="#268AFF"/>
<path d="M51.9064 309.75C51.9064 309.75 47.5743 305.412 45.4082 309.75C43.2422 314.089 41.0761 330.9 37.2855 334.696C33.4949 338.492 28.6213 357.472 34.0364 358.557C39.4516 359.642 45.4082 356.93 45.9497 353.676C46.4912 350.423 57.863 333.611 57.863 331.985C57.863 330.358 50.2818 324.392 50.2818 324.392L51.9064 309.75Z" fill="#0076FF"/>
<path d="M118.513 175.803C118.513 175.803 111.473 239.252 109.848 245.217C108.224 251.182 99.5596 273.959 96.852 277.755C94.1444 281.551 76.816 312.462 74.65 314.089C72.4839 315.716 68.1518 320.054 68.1518 320.054C68.1518 320.054 60.0291 328.188 58.9461 329.815C57.8631 331.442 48.6574 326.562 48.1158 323.308C47.5743 320.054 48.6574 314.631 49.1989 312.462C49.7404 310.293 48.1158 307.039 49.7404 305.412C51.3649 303.785 59.4876 295.651 59.4876 291.855C59.4876 288.059 73.567 265.824 78.9821 260.944C84.3972 256.063 83.3142 247.929 83.3142 247.929V214.849L53.531 205.63C53.531 205.63 55.1555 179.599 58.9461 179.599C62.7367 179.599 112.556 170.923 118.513 175.803Z" fill="#268AFF"/>
<path d="M74.6502 85.2402C84.5195 85.2402 92.5201 77.228 92.5201 67.3445C92.5201 57.4609 84.5195 49.4487 74.6502 49.4487C64.7809 49.4487 56.7803 57.4609 56.7803 67.3445C56.7803 77.228 64.7809 85.2402 74.6502 85.2402Z" fill="#FFB8B8"/>
<path d="M80.6069 81.444C80.6069 81.444 82.7729 89.5784 85.4805 91.7476C88.188 93.9168 78.4408 103.136 78.4408 103.136L60.0294 104.22L56.7803 93.9168C56.7803 93.9168 62.7369 81.9863 61.1124 74.3942C59.4878 66.802 80.6069 81.444 80.6069 81.444Z" fill="#FFB8B8"/>
<path d="M88.1881 90.6631C88.1881 90.6631 83.3145 91.2054 82.2314 92.8323C81.1484 94.4592 73.5672 99.3398 67.6106 98.2552C61.6539 97.1706 57.8634 95.5437 56.7803 96.086C55.6973 96.6283 53.5312 108.017 53.5312 108.017L59.4879 125.37L58.4049 173.092L56.7803 186.107C56.7803 186.107 53.5313 181.769 66.5276 184.48C79.5239 187.192 96.3108 182.311 101.726 181.769C107.141 181.226 116.347 179.6 116.888 176.346C117.43 173.092 115.264 161.161 115.264 161.161L106.6 124.828L101.184 105.305L88.1881 90.6631Z" fill="#93C5FF"/>
<path d="M83.0659 88.2158C83.0659 88.2158 87.6465 85.7827 89.2711 87.9519C90.8956 90.1211 111.473 93.3748 111.473 95.0017C111.473 96.6286 115.805 140.555 114.722 144.351C113.639 148.147 116.888 152.485 116.888 152.485L120.679 168.754C120.679 168.754 130.968 199.665 126.635 200.749C122.303 201.834 118.513 200.749 116.888 200.749C115.264 200.749 115.805 180.142 111.473 174.719C107.141 169.296 101.184 155.739 100.101 153.027C99.0183 150.316 85.4805 112.897 86.022 108.559C86.5635 104.221 83.0659 88.2158 83.0659 88.2158Z" fill="#4D9FFF"/>
<path d="M60.5707 90.6631C60.5707 90.6631 56.2386 90.6631 55.6971 91.7477C55.1556 92.8323 49.7404 99.8821 47.5744 101.509C45.4083 103.136 37.8271 110.186 37.8271 111.813C37.8271 113.439 53.531 125.37 53.531 125.37C53.531 125.37 60.0292 157.365 56.7801 168.211C53.531 179.057 48.6574 205.087 50.8235 206.714C52.9895 208.341 57.8631 208.883 57.8631 206.714C57.8631 204.545 61.1122 181.226 63.8198 176.346C66.5274 171.465 74.65 140.554 71.401 131.877C68.1519 123.201 60.5707 90.6631 60.5707 90.6631Z" fill="#4D9FFF"/>
<path d="M132.05 144.351C132.05 144.351 132.592 161.162 126.635 169.838C120.679 178.515 116.888 188.276 116.888 188.276C116.888 188.276 107.141 185.565 105.516 182.311C103.892 179.057 93.603 181.769 93.603 180.684C93.603 179.6 106.058 174.177 107.141 173.092C108.224 172.008 112.014 172.008 114.181 169.838C116.347 167.669 116.888 162.789 116.888 162.789L119.054 148.689L132.05 144.351Z" fill="#FFB8B8"/>
<path d="M86.9578 56.3105C88.3326 56.1855 89.7505 56.0478 90.9654 55.3917C93.6878 53.9214 94.4098 49.7344 92.3373 47.435C91.7659 46.8499 91.1268 46.3353 90.4335 45.9019L86.3173 43.0962C84.4968 41.8553 82.6333 40.594 80.5099 40.009C78.5895 39.4799 76.5611 39.5343 74.5731 39.658C70.7139 39.8982 66.8307 40.3944 63.2009 41.7288C59.571 43.0632 56.185 45.2956 53.9866 48.4811C50.5014 53.5311 50.4535 60.3419 52.373 66.1719C54.2926 72.0019 57.9388 77.0787 61.5316 82.0525L63.3958 72.9435C63.5618 72.1321 63.7765 71.2429 64.4503 70.7628C66.125 69.5693 68.1736 72.0197 70.2289 72.0038C71.5496 71.9936 72.6584 70.9058 73.1589 69.6818C73.6594 68.4578 73.6923 67.1024 73.8081 65.7849C74.0534 62.9943 75.0274 59.1115 77.6663 57.5724C80.1253 56.1383 84.1938 56.5619 86.9578 56.3105Z" fill="black"/>
<path opacity="0.1" d="M85.9553 206.067C85.9553 206.067 84.1264 259.046 83.0434 260.673C81.9603 262.3 83.0434 205.901 83.0434 205.901L85.9553 206.067Z" fill="black"/>
<path d="M107.141 95.0015H111.473C111.473 95.0015 129.884 119.947 127.718 121.574C125.552 123.201 127.718 127.539 127.718 127.539L132.05 135.674C132.05 135.674 137.465 140.554 135.841 141.639C134.216 142.723 132.05 147.062 132.05 147.062C132.05 147.062 121.22 145.435 117.971 151.942L110.948 143.063L107.141 95.0015Z" fill="#4D9FFF"/>
<path d="M96.3105 138.385C96.3105 138.385 57.3216 170.923 50.8234 160.619C44.3253 150.315 57.8631 141.639 57.8631 141.639C57.8631 141.639 69.7764 142.181 83.3142 133.504L96.8521 127.539C96.8521 127.539 109.211 109.869 113.423 116.598C117.634 123.326 106.234 135.037 96.3105 138.385Z" fill="#FFB8B8"/>
<path d="M43.7838 109.644L37.8272 111.813V128.082L35.6611 131.335C35.6611 131.335 36.2026 137.843 37.8272 139.47C39.4517 141.097 42.7008 140.554 41.6178 144.35C40.9669 146.825 40.7832 149.4 41.0763 151.943C41.0763 151.943 50.8235 164.415 51.365 162.788C51.9065 161.162 59.4877 141.097 60.5707 141.097C61.6538 141.097 49.7405 109.644 49.7405 109.644H43.7838Z" fill="#4D9FFF"/>
<path d="M114.993 191.801C114.993 191.801 120.592 186.378 117.792 186.107C114.993 185.836 105.246 180.413 103.621 183.124C101.996 185.836 114.993 191.801 114.993 191.801Z" fill="#553855"/>
<path d="M403.873 290.218C404.031 287.936 400.671 285.843 396.367 285.543C392.063 285.243 388.446 286.85 388.287 289.132C388.129 291.413 391.489 293.506 395.793 293.806C400.097 294.106 403.714 292.5 403.873 290.218Z" fill="white"/>
<path d="M190.66 98.519L185.955 95.1727L185.41 100.92L190.66 98.519ZM132.771 108.046L138.541 108.231L135.816 103.141L132.771 108.046ZM186.214 97.5948C176.908 96.9396 154.794 96.5635 136.518 105.473L136.956 106.372C154.984 97.5836 176.873 97.9396 186.144 98.5924L186.214 97.5948Z" fill="white"/>
<path d="M290.339 130H200.661C200.22 129.999 199.798 129.819 199.487 129.498C199.176 129.177 199 128.742 199 128.288V87.7121C199 87.2582 199.176 86.823 199.487 86.502C199.798 86.1811 200.22 86.0005 200.661 86H290.339C290.78 86.0005 291.202 86.1811 291.513 86.502C291.824 86.823 292 87.2582 292 87.7121V128.288C292 128.742 291.824 129.177 291.513 129.498C291.202 129.819 290.78 129.999 290.339 130Z" fill="#FF9E55"/>
<path d="M241.476 100.231C241.086 100.232 240.771 100.754 240.772 101.396C240.773 102.036 241.087 102.554 241.476 102.556H274.722C275.112 102.554 275.427 102.033 275.426 101.391C275.425 100.751 275.111 100.232 274.722 100.231H241.476Z" fill="white"/>
<path d="M241.476 106.967C241.086 106.968 240.771 107.49 240.772 108.131C240.773 108.772 241.087 109.29 241.476 109.292H274.722C275.112 109.29 275.427 108.769 275.426 108.127C275.425 107.487 275.111 106.968 274.722 106.967H241.476Z" fill="white"/>
<path d="M241.476 113.621C241.086 113.622 240.771 114.143 240.772 114.785C240.773 115.425 241.087 115.944 241.476 115.945H255.782C256.171 115.944 256.486 115.423 256.486 114.781C256.485 114.141 256.17 113.622 255.782 113.621H241.476Z" fill="white"/>
<path d="M224.595 117.302C229.578 117.302 233.617 113.137 233.617 108C233.617 102.863 229.578 98.6987 224.595 98.6987C219.613 98.6987 215.574 102.863 215.574 108C215.574 113.137 219.613 117.302 224.595 117.302Z" fill="white"/>
<path d="M436.644 147.982C436.838 146.661 435.441 145.367 433.523 145.09C431.605 144.814 429.892 145.661 429.698 146.982C429.504 148.303 430.902 149.597 432.82 149.874C434.738 150.15 436.45 149.303 436.644 147.982Z" fill="#E6E6E6"/>
<path d="M459.481 145.777C459.675 144.456 458.277 143.161 456.359 142.885C454.441 142.608 452.729 143.455 452.535 144.776C452.34 146.097 453.738 147.392 455.656 147.668C457.574 147.944 459.286 147.098 459.481 145.777Z" fill="#3F3D56"/>
<path d="M430.391 129.68C430.585 128.359 429.187 127.064 427.269 126.788C425.351 126.512 423.639 127.359 423.445 128.68C423.251 130 424.648 131.295 426.566 131.572C428.484 131.848 430.197 131.001 430.391 129.68Z" fill="#FF6584"/>
<path d="M420.468 122.183C420.477 120.97 419.794 119.982 418.942 119.976C418.09 119.969 417.391 120.947 417.382 122.16C417.373 123.372 418.056 124.361 418.908 124.367C419.76 124.373 420.459 123.396 420.468 122.183Z" fill="#E6E6E6"/>
<path d="M417.103 108.219C417.112 107.006 416.429 106.018 415.576 106.012C414.724 106.005 414.026 106.983 414.017 108.196C414.008 109.409 414.691 110.397 415.543 110.403C416.395 110.41 417.093 109.432 417.103 108.219Z" fill="#3F3D56"/>
<path d="M443.271 132.795C443.28 131.582 442.597 130.594 441.744 130.587C440.892 130.581 440.194 131.559 440.185 132.772C440.175 133.984 440.859 134.972 441.711 134.979C442.563 134.985 443.261 134.007 443.271 132.795Z" fill="#E6E6E6"/>
<path d="M432.235 138.249C432.245 137.037 431.561 136.048 430.709 136.042C429.857 136.036 429.159 137.014 429.15 138.226C429.14 139.439 429.824 140.427 430.676 140.433C431.528 140.44 432.226 139.462 432.235 138.249Z" fill="#FF6584"/>
<path d="M447.597 148.331C447.607 147.118 446.923 146.13 446.071 146.124C445.219 146.117 444.521 147.095 444.511 148.308C444.502 149.52 445.185 150.509 446.038 150.515C446.89 150.521 447.588 149.543 447.597 148.331Z" fill="#3F3D56"/>
<path d="M41.9822 276.188C40.6613 275.994 39.3665 277.391 39.0903 279.309C38.814 281.227 39.6608 282.94 40.9818 283.134C42.3027 283.328 43.5975 281.93 43.8738 280.012C44.15 278.094 43.3032 276.382 41.9822 276.188Z" fill="#E6E6E6"/>
<path d="M39.7767 253.352C38.4558 253.157 37.161 254.555 36.8847 256.473C36.6085 258.391 37.4553 260.103 38.7762 260.297C40.0972 260.492 41.3919 259.094 41.6682 257.176C41.9445 255.258 41.0976 253.546 39.7767 253.352Z" fill="#3F3D56"/>
<path d="M23.68 282.441C22.3591 282.247 21.0643 283.645 20.788 285.563C20.5118 287.481 21.3586 289.193 22.6795 289.387C24.0005 289.581 25.2953 288.184 25.5715 286.266C25.8478 284.348 25.0009 282.636 23.68 282.441Z" fill="#FF6584"/>
<path d="M16.1829 292.364C14.9702 292.355 13.982 293.038 13.9756 293.89C13.9692 294.742 14.9471 295.441 16.1597 295.45C17.3724 295.459 18.3606 294.776 18.367 293.924C18.3734 293.072 17.3955 292.374 16.1829 292.364Z" fill="#E6E6E6"/>
<path d="M2.21898 295.729C1.00632 295.72 0.0180898 296.403 0.0117108 297.256C0.00533172 298.108 0.98322 298.806 2.19588 298.815C3.40854 298.825 4.39677 298.141 4.40315 297.289C4.40953 296.437 3.43164 295.739 2.21898 295.729Z" fill="#3F3D56"/>
<path d="M26.7947 269.561C25.582 269.552 24.5938 270.235 24.5874 271.088C24.581 271.94 25.5589 272.638 26.7716 272.647C27.9842 272.657 28.9725 271.973 28.9788 271.121C28.9852 270.269 28.0073 269.571 26.7947 269.561Z" fill="#E6E6E6"/>
<path d="M32.2493 280.597C31.0366 280.587 30.0484 281.271 30.042 282.123C30.0356 282.975 31.0135 283.673 32.2262 283.682C33.4388 283.692 34.427 283.008 34.4334 282.156C34.4398 281.304 33.4619 280.606 32.2493 280.597Z" fill="#FF6584"/>
<path d="M42.3308 265.235C41.1182 265.226 40.1299 265.909 40.1236 266.761C40.1172 267.613 41.0951 268.311 42.3077 268.321C43.5204 268.33 44.5086 267.647 44.515 266.794C44.5213 265.942 43.5435 265.244 42.3308 265.235Z" fill="#3F3D56"/>
</g>
<defs>
<clipPath id="clip0_606_6248">
<rect width="505" height="367.07" fill="white"/>
</clipPath>
</defs>
</svg>
