<svg width="135" height="97" viewBox="0 0 135 97" fill="none" xmlns="http://www.w3.org/2000/svg">
<g clip-path="url(#clip0_104_32)">
<g clip-path="url(#clip1_104_32)">
<path d="M93.5286 33.4347C93.6685 35.7813 93.8056 37.9409 94.1351 39.8169C95.9693 37.8925 97.5656 35.4518 98.7368 32.7771C98.0779 32.6816 95.6399 32.8699 93.5286 33.4347Z" fill="black"/>
<path d="M81.9342 43.1506C81.9342 45.8253 83.9513 45.7325 84.5618 45.6841C86.0155 45.6411 87.6144 44.9821 89.2577 43.9023C88.7359 41.4145 88.4091 38.5018 88.1752 35.312C84.4677 37.1422 81.9342 40.0039 81.9342 43.1506Z" fill="black"/>
<path d="M134.198 37.8819C136.187 19.9846 120.48 3.43875 99.1255 0.926753C97.2778 0.710247 95.4556 0.598633 93.6537 0.598633C74.6174 0.598633 58.6592 12.4204 56.8384 28.7685C54.8495 46.6658 70.5495 63.213 91.9082 65.7237C93.7411 65.9415 95.5511 66.0464 97.3356 66.0464C99.3057 66.0464 101.238 65.9119 103.129 65.6699C110.775 73.9898 118.758 76.2329 123.222 76.2329C126.088 76.2329 127.504 75.3077 126.462 74.4874C119.944 69.3115 118.56 64.2619 118.973 60.2895C127.352 55.2803 133.142 47.3409 134.198 37.8819ZM103.16 53.6572L100.936 48.9089C106.523 47.5157 109.96 44.8571 109.96 40.5687C109.96 39.0196 109.438 35.3591 104.371 33.7159C102.307 38.409 99.1631 42.7741 95.5 45.9195C95.6883 46.53 96.8878 48.6776 97.1204 49.1455L92.2847 52.2452C92.048 51.7745 90.8539 49.6297 90.6656 49.0675C88.3177 50.3814 85.7344 51.2259 83.1041 51.2259C78.977 51.2259 76.2553 48.5942 76.2553 44.2318C76.2553 37.7528 81.2322 32.636 87.8981 29.9129C87.8 27.8944 87.8 25.8289 87.8 23.6692C84.2808 23.7647 80.4791 23.8588 78.6032 23.8104L78.3181 18.3184C80.4778 18.3655 84.4179 18.3655 87.8981 18.3655C87.9882 16.3484 88.0366 14.0018 88.1267 12.029L94.2413 12.497C94.1512 12.965 93.9966 16.6765 93.8567 18.1786C98.9749 17.9433 105.403 17.3341 110.616 16.2072L111.129 21.8874C105.969 22.8247 99.2075 23.2954 93.577 23.4836C93.5286 25.1269 93.4815 26.7231 93.4815 28.2736C95.4516 27.803 98.3186 27.5219 100.521 27.6618C100.71 26.9585 100.851 26.2525 100.895 25.5505L106.672 27.0055C106.53 27.5233 106.388 28.0397 106.298 28.556C113.101 30.4347 116.106 35.1736 116.106 40.4315C116.11 46.8675 111.962 51.519 103.16 53.6572Z" fill="black"/>
<path d="M52.9023 28.2279C53.0798 26.524 53.8772 23.8776 54.2175 22.865C50.4078 21.7851 45.5102 20.9648 41.2769 20.9648C39.4669 20.9648 37.6353 21.0765 35.7782 21.293C14.3146 23.8063 -1.47009 40.3521 0.526867 58.2495C1.58922 67.7098 7.40931 75.6492 15.8302 80.6611C16.2443 84.6281 14.8525 89.6804 8.30088 94.859C7.25467 95.6753 8.67876 96.6018 11.5592 96.6018C16.0453 96.6018 24.0708 94.3601 31.752 86.0401C33.6522 86.2822 35.5953 86.4126 37.5761 86.4126C39.37 86.4126 41.1895 86.3077 43.0305 86.0925C57.2902 84.4224 68.9654 77.1661 75.3449 65.2717C60.9601 58.0908 51.1998 44.5316 52.9023 28.2279ZM45.3327 73.8701L42.4415 63.1968H31.6122L28.8258 73.8701H20.9402L32.4002 33.4441H42.1779L53.4805 73.8701H45.3327Z" fill="black"/>
<path d="M37.0786 39.8574H36.9213C36.3955 42.3815 35.7123 45.6923 35.1327 48.0591L32.7149 57.311H41.3361L38.9182 48.1115C38.2875 45.5874 37.6044 42.3277 37.0786 39.8574Z" fill="black"/>
</g>
</g>
<defs>
<clipPath id="clip0_104_32">
<rect width="134.011" height="96.0032" fill="white" transform="translate(0.356445 0.598633)"/>
</clipPath>
<clipPath id="clip1_104_32">
<rect width="134.011" height="96.0032" fill="white" transform="translate(0.356445 0.598633)"/>
</clipPath>
</defs>
</svg>
